<svg width="28" height="28" viewBox="0 0 28 28" fill="none" xmlns="http://www.w3.org/2000/svg">
<path d="M18.6666 9.33331C20.5231 9.33331 22.3036 10.0708 23.6164 11.3836C24.9291 12.6963 25.6666 14.4768 25.6666 16.3333V24.5H21V16.3333C21 15.7145 20.7541 15.121 20.3165 14.6834C19.879 14.2458 19.2855 14 18.6666 14C18.0478 14 17.4543 14.2458 17.0167 14.6834C16.5791 15.121 16.3333 15.7145 16.3333 16.3333V24.5H11.6666V16.3333C11.6666 14.4768 12.4041 12.6963 13.7169 11.3836C15.0296 10.0708 16.8101 9.33331 18.6666 9.33331Z" stroke="white" stroke-width="2.04167" stroke-linecap="round" stroke-linejoin="round"/>
<path d="M7.00004 10.5H2.33337V24.5H7.00004V10.5Z" stroke="white" stroke-width="2.04167" stroke-linecap="round" stroke-linejoin="round"/>
<path d="M4.66671 6.99998C5.95537 6.99998 7.00004 5.95531 7.00004 4.66665C7.00004 3.37798 5.95537 2.33331 4.66671 2.33331C3.37804 2.33331 2.33337 3.37798 2.33337 4.66665C2.33337 5.95531 3.37804 6.99998 4.66671 6.99998Z" stroke="white" stroke-width="2.04167" stroke-linecap="round" stroke-linejoin="round"/>
</svg>
