<svg width="28" height="28" viewBox="0 0 28 28" fill="none" xmlns="http://www.w3.org/2000/svg">
<rect x="11.6667" y="12.1667" width="4" height="11" fill="#81D9A0"/>
<rect x="20.6667" y="12.1667" width="4" height="11" fill="#81D9A0"/>
<path d="M23.6667 13.6667C23.6667 12.4732 23.0873 11.3286 22.0558 10.4847C21.0244 9.64079 19.6254 9.16669 18.1667 9.16669C16.7081 9.16669 15.3091 9.64079 14.2777 10.4847C13.2462 11.3286 12.6667 12.4732 12.6667 13.6667L18.1667 13.6667H23.6667Z" fill="#81D9A0"/>
<rect x="2.66675" y="2.16669" width="3" height="4" fill="#81D9A0"/>
<rect x="2.66675" y="11.1667" width="3" height="12" fill="#81D9A0"/>
<path d="M18.3334 9C20.1899 9 21.9704 9.7375 23.2831 11.0503C24.5959 12.363 25.3334 14.1435 25.3334 16V24.1667H20.6667V16C20.6667 15.3812 20.4209 14.7877 19.9833 14.3501C19.5457 13.9125 18.9522 13.6667 18.3334 13.6667C17.7145 13.6667 17.121 13.9125 16.6835 14.3501C16.2459 14.7877 16 15.3812 16 16V24.1667H11.3334V16C11.3334 14.1435 12.0709 12.363 13.3836 11.0503C14.6964 9.7375 16.4769 9 18.3334 9Z" stroke="black" stroke-width="2.04167" stroke-linecap="round" stroke-linejoin="round"/>
<path d="M6.66667 10.1667H2V24.1667H6.66667V10.1667Z" stroke="black" stroke-width="2.04167" stroke-linecap="round" stroke-linejoin="round"/>
<path d="M4.33333 6.66667C5.622 6.66667 6.66667 5.622 6.66667 4.33333C6.66667 3.04467 5.622 2 4.33333 2C3.04467 2 2 3.04467 2 4.33333C2 5.622 3.04467 6.66667 4.33333 6.66667Z" stroke="black" stroke-width="2.04167" stroke-linecap="round" stroke-linejoin="round"/>
</svg>
