<svg width="65" height="66" viewBox="0 0 65 66" fill="none" xmlns="http://www.w3.org/2000/svg">
<g clip-path="url(#clip0_58_18)">
<path d="M37.8838 10.7341C37.5777 10.4542 37.1666 10.3143 36.6417 10.3143C36.0732 10.3143 35.5309 10.5679 35.006 11.0665C34.4812 11.5739 33.9651 12.4486 33.4665 13.6994C32.9592 14.9503 32.4256 16.7434 31.8658 19.0789L26.8275 39.0924C26.9936 38.8912 27.1598 38.6987 27.326 38.4976C28.367 37.1942 29.3379 35.8647 30.2738 34.5089L33.8864 20.1373C34.4462 17.8368 34.971 16.0611 35.4609 14.854C35.9245 13.6994 36.3881 12.8947 36.8429 12.4661C37.2366 12.0899 37.6127 11.9062 37.9976 11.9062C38.2075 11.9062 38.3737 11.95 38.5136 12.0025C38.5136 11.985 38.5136 11.9675 38.5136 11.9587C38.3912 11.4339 38.1812 11.0315 37.8751 10.7516L37.8838 10.7341Z" fill="#81D9A0"/>
<path d="M40.7617 6.46554C41.7326 7.17406 42.4849 8.14499 43.0272 9.39583C43.5695 10.6467 43.8407 12.1162 43.8407 13.8131C43.8407 15.6675 43.517 17.6619 42.8697 19.7962C42.2225 21.9305 41.304 24.161 40.1144 26.479C38.9248 28.797 37.534 31.1325 35.942 33.4942C34.35 35.8559 32.6268 38.1739 30.7724 40.4482C28.9181 42.7224 26.9937 44.8917 24.9993 46.9473C24.9294 47.0173 24.8681 47.0785 24.7981 47.1485L24.7282 47.4371C24.4833 48.6093 24.2821 49.7289 24.1246 50.7961C23.9672 51.8632 23.9672 52.8341 24.1246 53.7001C24.2821 54.5661 24.6669 55.2658 25.2705 55.7907C25.8303 56.2805 26.705 56.5342 27.8684 56.5604C27.5535 56.4554 27.2823 56.333 27.0812 56.158C26.5913 55.7382 26.2939 55.1784 26.1627 54.4698C26.014 53.6826 26.014 52.7817 26.1627 51.7932C26.3201 50.7436 26.5213 49.6327 26.7575 48.5043L26.7837 48.4081C26.7837 48.4081 26.8362 48.3556 26.8537 48.3294C28.8481 46.2738 30.8074 44.0695 32.6706 41.7865C34.525 39.5122 36.2744 37.1505 37.8751 34.78C38.6186 33.6779 39.3184 32.5758 39.9744 31.4824C39.9744 31.2287 39.9744 30.9925 40.0269 30.7826C40.1494 30.2753 40.4293 29.8991 40.8754 29.6367C40.9454 29.593 41.0328 29.5755 41.1028 29.5492C41.444 28.9282 41.7763 28.3159 42.0912 27.7036C43.2983 25.3506 44.2343 23.0676 44.8903 20.9071C45.5551 18.7115 45.8875 16.6297 45.8875 14.7228C45.8875 12.9472 45.5901 11.3639 45.0128 10.0344C44.418 8.67857 43.5783 7.59392 42.5199 6.81543C41.5139 6.08067 40.3243 5.70454 38.986 5.64331C39.6333 5.81825 40.2194 6.08941 40.7529 6.47429L40.7617 6.46554Z" fill="#81D9A0"/>
<path d="M11.4675 57.7675C11.4675 57.7675 11.4325 57.7413 11.4238 57.7238C11.4413 57.7413 11.4588 57.75 11.4675 57.7675Z" fill="#81D9A0"/>
<path d="M18.7801 52.8604C16.8383 54.5398 14.9489 56.0006 13.1295 57.2514C12.7009 57.5401 12.281 57.82 11.8611 58.0737C12.456 58.5635 13.0508 59.0446 13.6806 59.4907C14.0742 59.237 14.4765 58.9834 14.8789 58.7122C16.2435 57.785 17.6605 56.7091 19.095 55.5283C18.9026 54.6973 18.7976 53.8138 18.7801 52.8604Z" fill="#81D9A0"/>
<path d="M48.2492 36.2408C48.1618 35.5935 48.048 34.9637 47.8993 34.3514C47.7506 33.7391 47.567 33.1618 47.3658 32.6807C47.0071 31.6573 46.596 30.8963 46.1062 30.354C45.5464 29.7417 44.7941 29.4355 43.8757 29.4355C43.7794 29.4355 43.692 29.4618 43.6045 29.4705C43.8407 29.5842 44.0594 29.7329 44.243 29.9341C44.6629 30.3977 45.039 31.0975 45.3627 32.0247C45.5639 32.5058 45.7388 33.0394 45.8788 33.6254C46.0187 34.2115 46.1324 34.815 46.2111 35.4361C46.2899 36.0571 46.3336 36.7132 46.3336 37.4042C46.3336 39.4248 46.0275 41.5241 45.4239 43.7284C44.8204 45.9239 43.9456 48.0757 42.791 50.1663C41.6451 52.2656 40.2806 54.155 38.7061 55.8519C37.1316 57.5489 35.3559 58.8959 33.3878 59.9018C31.411 60.9078 29.3117 61.4151 27.0986 61.4151C25.1218 61.4151 23.5211 61.039 22.2877 60.2955C21.5879 59.8668 21.0106 59.342 20.5295 58.7385C21.1418 59.9981 22.0515 61.0215 23.2936 61.7737C24.6232 62.5785 26.3639 62.9896 28.4632 62.9896C30.7812 62.9896 33.003 62.456 35.0673 61.4063C37.1054 60.3654 38.9598 58.9571 40.578 57.2077C42.1787 55.4758 43.587 53.5164 44.7591 51.3821C45.9312 49.2478 46.8322 47.0348 47.4532 44.7955C48.0743 42.5475 48.3892 40.3607 48.3892 38.2964C48.3892 37.5879 48.3454 36.8969 48.2667 36.2408H48.2492Z" fill="#81D9A0"/>
<path d="M37.8226 19.595C38.4087 17.5569 38.6973 15.6326 38.6973 13.8219C38.6973 13.1134 38.6361 12.5098 38.5224 11.9937C38.3824 11.9325 38.2163 11.8975 38.0063 11.8975C37.6214 11.8975 37.2453 12.0812 36.8517 12.4573C36.3968 12.8947 35.9332 13.6994 35.4696 14.8453C34.9798 16.0524 34.455 17.8368 33.8952 20.1286L30.2826 34.5001C30.7987 33.7566 31.3235 33.0131 31.8046 32.2521C33.1779 30.1178 34.3763 27.9835 35.3997 25.8405C36.4318 23.7062 37.2366 21.6156 37.8226 19.5775V19.595Z" fill="white"/>
<path d="M26.7837 48.4081L26.7575 48.5043C26.5213 49.6327 26.3201 50.7436 26.1627 51.7932C26.014 52.7817 26.014 53.6826 26.1627 54.4699C26.2939 55.1871 26.6 55.7382 27.0811 56.1581C27.2823 56.333 27.5535 56.4555 27.8684 56.5604C27.9558 56.5604 28.0258 56.5779 28.1133 56.5779C29.3641 56.5779 30.6237 56.193 31.8921 55.432C33.1604 54.671 34.35 53.6301 35.4609 52.3181C36.5718 51.006 37.5427 49.5452 38.3912 47.9357C39.2396 46.3263 39.8957 44.6643 40.3593 42.9499C40.8229 41.2354 41.0591 39.591 41.0591 38.0252C41.0591 37.1768 40.9978 36.302 40.8754 35.3923C40.7529 34.4826 40.5167 33.5904 40.1494 32.6982C40.0269 32.2434 39.9832 31.8585 39.9744 31.4911C39.3184 32.5845 38.6186 33.6867 37.8751 34.7888C36.2744 37.1593 34.5249 39.5122 32.6705 41.7952C30.8074 44.0783 28.848 46.2825 26.8537 48.3381C26.8275 48.3644 26.8012 48.3906 26.7837 48.4168V48.4081Z" fill="white"/>
<path d="M32.5044 0.5C14.5552 0.5 0 15.0552 0 33.0044C0 41.6378 3.3764 49.484 8.8696 55.3008C9.90176 54.7585 11.0301 54.0675 12.176 53.254C13.768 52.1256 15.4212 50.8048 17.1356 49.2915C17.9316 48.5918 18.7276 47.8483 19.5324 47.0698L26.845 18.0468C27.9296 13.612 29.3117 10.393 30.9911 8.39867C32.6618 6.40432 34.7699 5.40715 37.3153 5.40715C37.6127 5.40715 37.9014 5.42464 38.19 5.46838C38.4699 5.50336 38.7323 5.56459 38.9948 5.63457C40.3331 5.68705 41.5227 6.07193 42.5286 6.80669C43.5957 7.58518 44.4267 8.66108 45.0215 10.0256C45.5988 11.3552 45.8962 12.9384 45.8962 14.7141C45.8962 16.621 45.5639 18.7028 44.8991 20.8983C44.243 23.0589 43.3071 25.3506 42.1 27.6949C41.7851 28.3072 41.4527 28.9195 41.1116 29.5405C41.3127 29.4443 41.5139 29.3743 41.7501 29.3218C41.9863 29.2693 42.2399 29.2344 42.5199 29.2344C42.721 29.2344 42.9135 29.2606 43.0972 29.2956H43.1147C43.2896 29.3306 43.4558 29.3918 43.6045 29.4618C43.7007 29.4618 43.7794 29.4268 43.8757 29.4268C44.8029 29.4268 45.5464 29.7329 46.1062 30.3452C46.596 30.8876 47.0071 31.6398 47.3658 32.672C47.567 33.1531 47.7506 33.7216 47.8993 34.3427C48.048 34.955 48.1618 35.5848 48.2492 36.2321C48.3367 36.8794 48.3717 37.5704 48.3717 38.2876C48.3717 40.3607 48.0568 42.5475 47.4357 44.7868C46.8234 47.026 45.9137 49.2391 44.7416 51.3734C43.5695 53.5077 42.1612 55.467 40.5605 57.199C38.9423 58.9484 37.0791 60.3567 35.0498 61.3976C32.9855 62.4473 30.7637 62.9808 28.4457 62.9808C26.3551 62.9808 24.6145 62.5697 23.2761 61.765C22.0428 61.0127 21.1243 59.9893 20.512 58.7297C20.3371 58.5023 20.1709 58.2749 20.0222 58.0299C19.8648 57.7763 19.7335 57.5139 19.6111 57.234C19.4974 56.954 19.3924 56.6741 19.3049 56.3767C19.2175 56.0968 19.1387 55.8082 19.0775 55.5108C17.643 56.6829 16.2259 57.7588 14.8614 58.6947C14.459 58.9659 14.0567 59.2283 13.663 59.4732C18.9725 63.2607 25.4717 65.4913 32.4956 65.4913C50.4448 65.4913 65 50.936 65 32.9869C65 15.0377 50.4535 0.5 32.5044 0.5Z" fill="white"/>
</g>
<defs>
<clipPath id="clip0_58_18">
<rect width="65" height="65" fill="white" transform="translate(0 0.5)"/>
</clipPath>
</defs>
</svg>
