<svg width="65" height="65" viewBox="0 0 65 65" fill="none" xmlns="http://www.w3.org/2000/svg">
<g clip-path="url(#clip0_58_77)">
<path d="M37.8839 10.2341C37.5777 9.95422 37.1666 9.81427 36.6418 9.81427C36.0732 9.81427 35.5309 10.0679 35.0061 10.5665C34.4812 11.0739 33.9651 11.9486 33.4666 13.1994C32.9592 14.4503 32.4257 16.2434 31.8658 18.5789L26.8275 38.5924C26.9937 38.3912 27.1599 38.1987 27.3261 37.9976C28.367 36.6942 29.3379 35.3647 30.2739 34.0089L33.8864 19.6373C34.4462 17.3368 34.9711 15.5611 35.4609 14.354C35.9245 13.1994 36.3881 12.3947 36.843 11.9661C37.2366 11.5899 37.6127 11.4062 37.9976 11.4062C38.2075 11.4062 38.3737 11.45 38.5137 11.5025C38.5137 11.485 38.5137 11.4675 38.5137 11.4587C38.3912 10.9339 38.1813 10.5315 37.8751 10.2516L37.8839 10.2341Z" fill="#81D9A0"/>
<path d="M40.7617 5.96554C41.7326 6.67406 42.4849 7.64499 43.0272 8.89583C43.5695 10.1467 43.8407 11.6162 43.8407 13.3131C43.8407 15.1675 43.517 17.1619 42.8697 19.2962C42.2225 21.4305 41.304 23.661 40.1144 25.979C38.9248 28.297 37.534 30.6325 35.942 32.9942C34.35 35.3559 32.6268 37.6739 30.7724 39.9482C28.9181 42.2224 26.9937 44.3917 24.9993 46.4473C24.9294 46.5173 24.8681 46.5785 24.7981 46.6485L24.7282 46.9371C24.4833 48.1093 24.2821 49.2289 24.1246 50.2961C23.9672 51.3632 23.9672 52.3341 24.1246 53.2001C24.2821 54.0661 24.6669 54.7658 25.2705 55.2907C25.8303 55.7805 26.705 56.0342 27.8684 56.0604C27.5535 55.9554 27.2823 55.833 27.0812 55.658C26.5913 55.2382 26.2939 54.6784 26.1627 53.9698C26.014 53.1826 26.014 52.2817 26.1627 51.2932C26.3201 50.2436 26.5213 49.1327 26.7575 48.0043L26.7837 47.9081C26.7837 47.9081 26.8362 47.8556 26.8537 47.8294C28.8481 45.7738 30.8074 43.5695 32.6706 41.2865C34.525 39.0122 36.2744 36.6505 37.8751 34.28C38.6186 33.1779 39.3184 32.0758 39.9744 30.9824C39.9744 30.7287 39.9744 30.4925 40.0269 30.2826C40.1494 29.7753 40.4293 29.3991 40.8754 29.1367C40.9454 29.093 41.0328 29.0755 41.1028 29.0492C41.444 28.4282 41.7763 27.8159 42.0912 27.2036C43.2983 24.8506 44.2343 22.5676 44.8903 20.4071C45.5551 18.2115 45.8875 16.1297 45.8875 14.2228C45.8875 12.4472 45.5901 10.8639 45.0128 9.53437C44.418 8.17857 43.5783 7.09392 42.5199 6.31543C41.5139 5.58067 40.3243 5.20454 38.986 5.14331C39.6333 5.31825 40.2194 5.58941 40.7529 5.97429L40.7617 5.96554Z" fill="#81D9A0"/>
<path d="M11.4675 57.2675C11.4675 57.2675 11.4325 57.2413 11.4238 57.2238C11.4413 57.2413 11.4588 57.25 11.4675 57.2675Z" fill="#81D9A0"/>
<path d="M18.7801 52.3604C16.8382 54.0398 14.9489 55.5006 13.1294 56.7514C12.7008 57.0401 12.281 57.32 11.8611 57.5737C12.4559 58.0635 13.0507 58.5446 13.6805 58.9907C14.0741 58.737 14.4765 58.4834 14.8789 58.2122C16.2434 57.285 17.6605 56.2091 19.095 55.0283C18.9026 54.1973 18.7976 53.3138 18.7801 52.3604Z" fill="#81D9A0"/>
<path d="M48.2492 35.7408C48.1618 35.0935 48.048 34.4637 47.8993 33.8514C47.7506 33.2391 47.567 32.6618 47.3658 32.1807C47.0071 31.1573 46.596 30.3963 46.1062 29.854C45.5464 29.2417 44.7941 28.9355 43.8757 28.9355C43.7794 28.9355 43.692 28.9618 43.6045 28.9705C43.8407 29.0842 44.0594 29.2329 44.243 29.4341C44.6629 29.8977 45.039 30.5975 45.3627 31.5247C45.5639 32.0058 45.7388 32.5394 45.8788 33.1254C46.0187 33.7115 46.1324 34.315 46.2111 34.9361C46.2899 35.5571 46.3336 36.2132 46.3336 36.9042C46.3336 38.9248 46.0275 41.0241 45.4239 43.2284C44.8204 45.4239 43.9456 47.5757 42.791 49.6663C41.6451 51.7656 40.2806 53.655 38.7061 55.3519C37.1316 57.0489 35.3559 58.3959 33.3878 59.4018C31.411 60.4078 29.3117 60.9151 27.0986 60.9151C25.1218 60.9151 23.5211 60.539 22.2877 59.7955C21.5879 59.3668 21.0106 58.842 20.5295 58.2385C21.1418 59.4981 22.0515 60.5215 23.2936 61.2737C24.6232 62.0785 26.3639 62.4896 28.4632 62.4896C30.7812 62.4896 33.003 61.956 35.0673 60.9063C37.1054 59.8654 38.9598 58.4571 40.578 56.7077C42.1787 54.9758 43.587 53.0164 44.7591 50.8821C45.9312 48.7478 46.8322 46.5348 47.4532 44.2955C48.0743 42.0475 48.3892 39.8607 48.3892 37.7964C48.3892 37.0879 48.3454 36.3969 48.2667 35.7408H48.2492Z" fill="#81D9A0"/>
<path d="M37.8226 19.095C38.4087 17.0569 38.6973 15.1326 38.6973 13.3219C38.6973 12.6134 38.6361 12.0098 38.5224 11.4937C38.3824 11.4325 38.2163 11.3975 38.0063 11.3975C37.6214 11.3975 37.2453 11.5812 36.8517 11.9573C36.3968 12.3947 35.9332 13.1994 35.4696 14.3453C34.9798 15.5524 34.455 17.3368 33.8952 19.6286L30.2826 34.0001C30.7987 33.2566 31.3235 32.5131 31.8046 31.7521C33.1779 29.6178 34.3763 27.4835 35.3997 25.3405C36.4318 23.2062 37.2366 21.1156 37.8226 19.0775V19.095Z" fill="#450D6D"/>
<path d="M26.7838 47.9081L26.7575 48.0043C26.5213 49.1327 26.3202 50.2436 26.1627 51.2932C26.014 52.2817 26.014 53.1826 26.1627 53.9699C26.2939 54.6871 26.6001 55.2382 27.0812 55.6581C27.2823 55.833 27.5535 55.9555 27.8684 56.0604C27.9559 56.0604 28.0258 56.0779 28.1133 56.0779C29.3642 56.0779 30.6237 55.693 31.8921 54.932C33.1604 54.171 34.35 53.1301 35.4609 51.8181C36.5718 50.506 37.5427 49.0452 38.3912 47.4357C39.2397 45.8263 39.8957 44.1643 40.3593 42.4499C40.8229 40.7354 41.0591 39.091 41.0591 37.5252C41.0591 36.6768 40.9979 35.802 40.8754 34.8923C40.7529 33.9826 40.5168 33.0904 40.1494 32.1982C40.0269 31.7434 39.9832 31.3585 39.9744 30.9911C39.3184 32.0845 38.6186 33.1867 37.8751 34.2888C36.2744 36.6593 34.525 39.0122 32.6706 41.2952C30.8074 43.5783 28.8481 45.7825 26.8537 47.8381C26.8275 47.8644 26.8012 47.8906 26.7838 47.9168V47.9081Z" fill="#450D6D"/>
<path d="M32.5044 0C14.5552 0 0 14.5552 0 32.5044C0 41.1378 3.3764 48.984 8.8696 54.8008C9.90176 54.2585 11.0301 53.5675 12.176 52.754C13.768 51.6256 15.4212 50.3048 17.1356 48.7915C17.9316 48.0918 18.7276 47.3483 19.5324 46.5698L26.845 17.5468C27.9296 13.112 29.3117 9.89302 30.9911 7.89867C32.6618 5.90432 34.7699 4.90715 37.3153 4.90715C37.6127 4.90715 37.9014 4.92464 38.19 4.96838C38.4699 5.00336 38.7323 5.06459 38.9948 5.13457C40.3331 5.18705 41.5227 5.57193 42.5286 6.30669C43.5957 7.08518 44.4267 8.16108 45.0215 9.52564C45.5988 10.8552 45.8962 12.4384 45.8962 14.2141C45.8962 16.121 45.5639 18.2028 44.8991 20.3983C44.243 22.5589 43.3071 24.8506 42.1 27.1949C41.7851 27.8072 41.4527 28.4195 41.1116 29.0405C41.3127 28.9443 41.5139 28.8743 41.7501 28.8218C41.9863 28.7693 42.2399 28.7344 42.5199 28.7344C42.721 28.7344 42.9135 28.7606 43.0972 28.7956H43.1147C43.2896 28.8306 43.4558 28.8918 43.6045 28.9618C43.7007 28.9618 43.7794 28.9268 43.8757 28.9268C44.8029 28.9268 45.5464 29.2329 46.1062 29.8452C46.596 30.3876 47.0071 31.1398 47.3658 32.172C47.567 32.6531 47.7506 33.2216 47.8993 33.8427C48.048 34.455 48.1618 35.0848 48.2492 35.7321C48.3367 36.3794 48.3717 37.0704 48.3717 37.7876C48.3717 39.8607 48.0568 42.0475 47.4357 44.2868C46.8234 46.526 45.9137 48.7391 44.7416 50.8734C43.5695 53.0077 42.1612 54.967 40.5605 56.699C38.9423 58.4484 37.0791 59.8567 35.0498 60.8976C32.9855 61.9473 30.7637 62.4808 28.4457 62.4808C26.3551 62.4808 24.6145 62.0697 23.2761 61.265C22.0428 60.5127 21.1243 59.4893 20.512 58.2297C20.3371 58.0023 20.1709 57.7749 20.0222 57.5299C19.8648 57.2763 19.7335 57.0139 19.6111 56.734C19.4974 56.454 19.3924 56.1741 19.3049 55.8767C19.2175 55.5968 19.1387 55.3082 19.0775 55.0108C17.643 56.1829 16.2259 57.2588 14.8614 58.1947C14.459 58.4659 14.0567 58.7283 13.663 58.9732C18.9725 62.7607 25.4717 64.9913 32.4956 64.9913C50.4448 64.9913 65 50.436 65 32.4869C65 14.5377 50.4535 0 32.5044 0Z" fill="#450D6D"/>
</g>
<defs>
<clipPath id="clip0_58_77">
<rect width="65" height="65" fill="white"/>
</clipPath>
</defs>
</svg>
