<svg width="278" height="57" viewBox="0 0 278 57" fill="none" xmlns="http://www.w3.org/2000/svg">
<path opacity="0.7" d="M52.4131 54.0535C45.5814 48.7915 5.92249 58.2982 2.41905 56.8599C-0.27859 55.0007 -0.699003 18.4823 1.05271 12.9046C1.68333 10.9401 2.55919 10.5542 4.87146 11.2208C7.63917 12.2381 41.8327 7.57244 53.1137 6.16923C53.8144 7.25672 55.2859 3.36283 55.7063 4.73095C56.5471 6.73051 133.728 1.43342 135.9 1.36326C139.684 1.22294 136.741 3.43299 141.155 2.59106C150.579 0.83706 171.25 2.97694 178.362 1.22294C184.107 -0.180262 185.333 -0.215342 190.834 1.2931C195.633 2.59106 226.289 2.59106 229.862 0.345939C230.738 -0.285503 231.368 -0.00486195 231.333 0.80198C231.333 0.87214 241.774 2.06486 241.844 2.06486C247.099 2.6963 252.354 3.46807 252.389 3.78379C252.494 4.59063 253.125 5.01159 253.755 4.52047C254.877 3.67855 277.474 2.76646 277.649 5.15191C278.209 11.9925 273.059 40.3022 270.081 47.0375C266.963 54.1939 253.58 44.5118 241.739 48.125C181.97 44.2662 189.853 45.1783 177.24 47.8093C175.944 45.3186 170.969 51.2121 167.886 46.8972C166.625 45.1432 157.551 44.7222 155.554 46.4762C154.713 47.2129 142.662 46.4762 130.294 46.371C117.892 46.2658 105.105 46.8621 102.863 49.3177C93.2981 45.1081 57.1427 53.2116 52.378 54.0185L52.4131 54.0535Z" fill="#81D9A0"/>
</svg>
